G04*
G04 #@! TF.GenerationSoftware,Altium Limited,Altium Designer,22.10.1 (41)*
G04*
G04 Layer_Color=8388736*
%FSLAX25Y25*%
%MOIN*%
G70*
G04*
G04 #@! TF.SameCoordinates,B22AEA06-AE45-4BA8-881C-222E2ACC086B*
G04*
G04*
G04 #@! TF.FilePolarity,Negative*
G04*
G01*
G75*
%ADD43R,0.02410X0.07107*%
G04:AMPARAMS|DCode=44|XSize=71.07mil|YSize=24.1mil|CornerRadius=12.05mil|HoleSize=0mil|Usage=FLASHONLY|Rotation=90.000|XOffset=0mil|YOffset=0mil|HoleType=Round|Shape=RoundedRectangle|*
%AMROUNDEDRECTD44*
21,1,0.07107,0.00000,0,0,90.0*
21,1,0.04697,0.02410,0,0,90.0*
1,1,0.02410,0.00000,0.02349*
1,1,0.02410,0.00000,-0.02349*
1,1,0.02410,0.00000,-0.02349*
1,1,0.02410,0.00000,0.02349*
%
%ADD44ROUNDEDRECTD44*%
G04:AMPARAMS|DCode=51|XSize=97.21mil|YSize=24.49mil|CornerRadius=12.25mil|HoleSize=0mil|Usage=FLASHONLY|Rotation=270.000|XOffset=0mil|YOffset=0mil|HoleType=Round|Shape=RoundedRectangle|*
%AMROUNDEDRECTD51*
21,1,0.09721,0.00000,0,0,270.0*
21,1,0.07272,0.02449,0,0,270.0*
1,1,0.02449,0.00000,-0.03636*
1,1,0.02449,0.00000,0.03636*
1,1,0.02449,0.00000,0.03636*
1,1,0.02449,0.00000,-0.03636*
%
%ADD51ROUNDEDRECTD51*%
%ADD52R,0.02449X0.09721*%
%ADD60R,0.03359X0.02965*%
%ADD61R,0.02965X0.03359*%
%ADD62R,0.03162X0.03950*%
%ADD63R,0.03162X0.06902*%
%ADD64C,0.04800*%
%ADD65R,0.14186X0.07887*%
%ADD66R,0.07887X0.14186*%
%ADD67R,0.06115X0.04343*%
%ADD68R,0.03556X0.02375*%
%ADD69R,0.02375X0.03556*%
%ADD70R,0.04343X0.06115*%
%ADD71R,0.09068X0.06115*%
%ADD72R,0.04540X0.04737*%
%ADD73R,0.08674X0.08674*%
%ADD74R,0.03950X0.06312*%
%ADD75R,0.04068X0.03556*%
%ADD76R,0.16548X0.06706*%
%ADD77R,0.07493X0.09658*%
%ADD78R,0.03753X0.04343*%
%ADD79R,0.05131X0.03162*%
%ADD80R,0.01784X0.03556*%
%ADD81R,0.03556X0.01784*%
%ADD82R,0.10446X0.10446*%
%ADD83R,0.08280X0.03162*%
G04:AMPARAMS|DCode=84|XSize=33.59mil|YSize=72.96mil|CornerRadius=5.92mil|HoleSize=0mil|Usage=FLASHONLY|Rotation=270.000|XOffset=0mil|YOffset=0mil|HoleType=Round|Shape=RoundedRectangle|*
%AMROUNDEDRECTD84*
21,1,0.03359,0.06112,0,0,270.0*
21,1,0.02175,0.07296,0,0,270.0*
1,1,0.01184,-0.03056,-0.01088*
1,1,0.01184,-0.03056,0.01088*
1,1,0.01184,0.03056,0.01088*
1,1,0.01184,0.03056,-0.01088*
%
%ADD84ROUNDEDRECTD84*%
%ADD85R,0.07887X0.03162*%
%ADD86O,0.04343X0.01784*%
%ADD87O,0.01784X0.04343*%
%ADD88R,0.11824X0.11824*%
%ADD89R,0.02375X0.06706*%
%ADD90R,0.01981X0.06312*%
%ADD91R,0.11824X0.11824*%
%ADD92R,0.08674X0.08674*%
%ADD93R,0.06115X0.09068*%
%ADD94R,0.04737X0.04540*%
%ADD95R,0.06706X0.02375*%
%ADD96R,0.07887X0.07887*%
%ADD97C,0.07887*%
%ADD98C,0.24422*%
%ADD99C,0.20485*%
%ADD100C,0.07099*%
G04:AMPARAMS|DCode=101|XSize=70.99mil|YSize=70.99mil|CornerRadius=19.75mil|HoleSize=0mil|Usage=FLASHONLY|Rotation=270.000|XOffset=0mil|YOffset=0mil|HoleType=Round|Shape=RoundedRectangle|*
%AMROUNDEDRECTD101*
21,1,0.07099,0.03150,0,0,270.0*
21,1,0.03150,0.07099,0,0,270.0*
1,1,0.03950,-0.01575,-0.01575*
1,1,0.03950,-0.01575,0.01575*
1,1,0.03950,0.01575,0.01575*
1,1,0.03950,0.01575,-0.01575*
%
%ADD101ROUNDEDRECTD101*%
%ADD102C,0.06706*%
%ADD103R,0.06706X0.06706*%
%ADD104R,0.07887X0.07887*%
%ADD105C,0.02769*%
D43*
X413760Y197970D02*
D03*
D44*
X417500D02*
D03*
X421240D02*
D03*
Y207030D02*
D03*
X413760D02*
D03*
D51*
X645000Y247998D02*
D03*
X640000D02*
D03*
X635000D02*
D03*
X630000D02*
D03*
Y267002D02*
D03*
X635000D02*
D03*
X640000D02*
D03*
D52*
X645000D02*
D03*
D60*
X42500Y334250D02*
D03*
Y330750D02*
D03*
X405000Y320750D02*
D03*
Y324250D02*
D03*
X400000D02*
D03*
Y320750D02*
D03*
X395000D02*
D03*
Y324250D02*
D03*
Y284250D02*
D03*
Y280750D02*
D03*
X400000D02*
D03*
Y284250D02*
D03*
X405000Y280750D02*
D03*
Y284250D02*
D03*
X385000Y313250D02*
D03*
Y309750D02*
D03*
X390000Y284250D02*
D03*
Y280750D02*
D03*
X395000Y235750D02*
D03*
Y239250D02*
D03*
X405000D02*
D03*
Y235750D02*
D03*
X462500Y239250D02*
D03*
Y235750D02*
D03*
X472500Y239250D02*
D03*
Y235750D02*
D03*
X467500D02*
D03*
Y239250D02*
D03*
X330000Y127750D02*
D03*
Y124250D02*
D03*
X716000Y119750D02*
D03*
Y116250D02*
D03*
X684000Y327250D02*
D03*
Y323750D02*
D03*
X379500Y341250D02*
D03*
Y344750D02*
D03*
X90000Y231250D02*
D03*
Y234750D02*
D03*
X240000Y231250D02*
D03*
Y234750D02*
D03*
X631500Y313250D02*
D03*
Y309750D02*
D03*
X161500Y313250D02*
D03*
Y309750D02*
D03*
X167000Y313250D02*
D03*
Y309750D02*
D03*
X177500Y313250D02*
D03*
Y309750D02*
D03*
X183000Y313250D02*
D03*
Y309750D02*
D03*
X194000Y313250D02*
D03*
Y309750D02*
D03*
X199500Y313250D02*
D03*
Y309750D02*
D03*
X210000Y313250D02*
D03*
Y309750D02*
D03*
X216000Y313250D02*
D03*
Y309750D02*
D03*
X226500Y313250D02*
D03*
Y309750D02*
D03*
X232000Y313250D02*
D03*
Y309750D02*
D03*
X243000Y313250D02*
D03*
Y309750D02*
D03*
X248500Y313250D02*
D03*
Y309750D02*
D03*
X259500Y313250D02*
D03*
Y309750D02*
D03*
X264500Y313250D02*
D03*
Y309750D02*
D03*
X275500Y313250D02*
D03*
Y309750D02*
D03*
X281000Y313250D02*
D03*
Y309750D02*
D03*
X292000Y313250D02*
D03*
Y309750D02*
D03*
X297500Y313250D02*
D03*
Y309750D02*
D03*
X308000Y313250D02*
D03*
Y309750D02*
D03*
X313598Y313250D02*
D03*
Y309750D02*
D03*
X324500Y313250D02*
D03*
Y309750D02*
D03*
X330000Y313250D02*
D03*
Y309750D02*
D03*
X340500Y313250D02*
D03*
Y309750D02*
D03*
X346000Y313250D02*
D03*
Y309750D02*
D03*
X512000Y313250D02*
D03*
Y309750D02*
D03*
X517500Y313250D02*
D03*
Y309750D02*
D03*
X528000Y313250D02*
D03*
Y309750D02*
D03*
X533500Y313250D02*
D03*
Y309750D02*
D03*
X544500Y313250D02*
D03*
Y309750D02*
D03*
X550000Y313250D02*
D03*
Y309750D02*
D03*
X560500Y313250D02*
D03*
Y309750D02*
D03*
X566000Y313250D02*
D03*
Y309750D02*
D03*
X582500Y313250D02*
D03*
Y309750D02*
D03*
X599000Y313250D02*
D03*
Y309750D02*
D03*
X615000Y313250D02*
D03*
Y309750D02*
D03*
X577000Y313250D02*
D03*
Y309750D02*
D03*
X593500Y313250D02*
D03*
Y309750D02*
D03*
X609500Y313250D02*
D03*
Y309750D02*
D03*
X626000Y313250D02*
D03*
Y309750D02*
D03*
X485000Y239250D02*
D03*
Y235750D02*
D03*
X61043Y405750D02*
D03*
Y409250D02*
D03*
X445000Y221750D02*
D03*
Y218250D02*
D03*
X630000Y235750D02*
D03*
Y239250D02*
D03*
X645000Y235750D02*
D03*
Y239250D02*
D03*
X452500Y246750D02*
D03*
Y243250D02*
D03*
X440000Y221750D02*
D03*
Y218250D02*
D03*
X435000Y221750D02*
D03*
Y218250D02*
D03*
X452500Y250750D02*
D03*
Y254250D02*
D03*
X420000Y275750D02*
D03*
Y279250D02*
D03*
X415000Y275750D02*
D03*
Y279250D02*
D03*
X425000Y275750D02*
D03*
Y279250D02*
D03*
X430000D02*
D03*
Y275750D02*
D03*
X622500Y266750D02*
D03*
Y263250D02*
D03*
X617500Y266750D02*
D03*
Y263250D02*
D03*
Y259250D02*
D03*
Y255750D02*
D03*
Y251750D02*
D03*
Y248250D02*
D03*
X622500D02*
D03*
Y251750D02*
D03*
X592500Y254250D02*
D03*
Y250750D02*
D03*
Y258250D02*
D03*
Y261750D02*
D03*
X299665Y162915D02*
D03*
Y159415D02*
D03*
X271665Y168915D02*
D03*
Y165415D02*
D03*
X42500Y346750D02*
D03*
Y343250D02*
D03*
X47500Y346750D02*
D03*
Y343250D02*
D03*
X52500D02*
D03*
Y346750D02*
D03*
X32500Y306337D02*
D03*
Y302837D02*
D03*
X27500Y306337D02*
D03*
Y302837D02*
D03*
Y326750D02*
D03*
Y323250D02*
D03*
X32500D02*
D03*
Y326750D02*
D03*
Y292837D02*
D03*
Y296337D02*
D03*
X37500Y326750D02*
D03*
Y323250D02*
D03*
X60000Y310337D02*
D03*
Y313837D02*
D03*
X55000D02*
D03*
Y310337D02*
D03*
X57500Y346750D02*
D03*
Y343250D02*
D03*
X37500D02*
D03*
Y346750D02*
D03*
X118500Y297837D02*
D03*
Y301337D02*
D03*
X128000Y373250D02*
D03*
Y369750D02*
D03*
X40000Y193250D02*
D03*
Y196750D02*
D03*
Y231250D02*
D03*
Y234750D02*
D03*
X50000Y193250D02*
D03*
Y196750D02*
D03*
Y231250D02*
D03*
Y234750D02*
D03*
X60000Y231250D02*
D03*
Y234750D02*
D03*
X70000Y231250D02*
D03*
Y234750D02*
D03*
X5000Y104250D02*
D03*
Y100750D02*
D03*
X100000Y193250D02*
D03*
Y196750D02*
D03*
X110000Y193250D02*
D03*
Y196750D02*
D03*
Y231250D02*
D03*
Y234750D02*
D03*
X120000Y193250D02*
D03*
Y196750D02*
D03*
Y231250D02*
D03*
Y234750D02*
D03*
X130000Y193250D02*
D03*
Y196750D02*
D03*
X140000Y193250D02*
D03*
Y196750D02*
D03*
X160000Y193250D02*
D03*
Y196750D02*
D03*
X170000Y193250D02*
D03*
Y196750D02*
D03*
X180000Y193250D02*
D03*
Y196750D02*
D03*
X190000Y193250D02*
D03*
Y196750D02*
D03*
X200000Y193250D02*
D03*
Y196750D02*
D03*
X210000Y193250D02*
D03*
Y196750D02*
D03*
X220000Y193250D02*
D03*
Y196750D02*
D03*
X230000Y193250D02*
D03*
Y196750D02*
D03*
X240000Y193250D02*
D03*
Y196750D02*
D03*
X90000D02*
D03*
Y193250D02*
D03*
X80000Y196750D02*
D03*
Y193250D02*
D03*
X30000Y116750D02*
D03*
Y113250D02*
D03*
X60000Y193250D02*
D03*
Y196750D02*
D03*
X24000Y113250D02*
D03*
Y116750D02*
D03*
X542500Y295750D02*
D03*
Y299250D02*
D03*
X535000Y279250D02*
D03*
Y275750D02*
D03*
X505000D02*
D03*
Y279250D02*
D03*
Y253250D02*
D03*
Y256750D02*
D03*
X500000Y235750D02*
D03*
Y239250D02*
D03*
X505000Y235750D02*
D03*
Y239250D02*
D03*
Y268250D02*
D03*
Y271750D02*
D03*
Y260750D02*
D03*
Y264250D02*
D03*
X515000Y279250D02*
D03*
Y275750D02*
D03*
X510000Y279250D02*
D03*
Y275750D02*
D03*
X502500Y298250D02*
D03*
Y301750D02*
D03*
X495000Y239250D02*
D03*
Y235750D02*
D03*
X500000Y275750D02*
D03*
Y279250D02*
D03*
X477500D02*
D03*
Y275750D02*
D03*
X520000D02*
D03*
Y279250D02*
D03*
X490000Y239250D02*
D03*
Y235750D02*
D03*
X530000Y279250D02*
D03*
Y275750D02*
D03*
X525000D02*
D03*
Y279250D02*
D03*
X490000D02*
D03*
Y275750D02*
D03*
X495000D02*
D03*
Y279250D02*
D03*
X530000Y239250D02*
D03*
Y235750D02*
D03*
X485000Y275750D02*
D03*
Y279250D02*
D03*
X477500Y239250D02*
D03*
Y235750D02*
D03*
X580000Y243250D02*
D03*
Y246750D02*
D03*
Y254250D02*
D03*
Y250750D02*
D03*
X510000Y268250D02*
D03*
Y271750D02*
D03*
X505000Y249250D02*
D03*
Y245750D02*
D03*
X462500Y279250D02*
D03*
Y275750D02*
D03*
X515000Y239250D02*
D03*
Y235750D02*
D03*
X535000Y256750D02*
D03*
Y253250D02*
D03*
X562500Y218250D02*
D03*
Y221750D02*
D03*
X520000Y235750D02*
D03*
Y239250D02*
D03*
X567500Y218250D02*
D03*
Y221750D02*
D03*
X550000Y279250D02*
D03*
Y275750D02*
D03*
X545000Y279250D02*
D03*
Y275750D02*
D03*
X540000Y279250D02*
D03*
Y275750D02*
D03*
X625000Y298250D02*
D03*
Y301750D02*
D03*
X622500Y259250D02*
D03*
Y255750D02*
D03*
X585000Y298250D02*
D03*
Y301750D02*
D03*
X592500Y265750D02*
D03*
Y269250D02*
D03*
X675000Y253250D02*
D03*
Y256750D02*
D03*
Y275750D02*
D03*
Y279250D02*
D03*
X705000D02*
D03*
Y275750D02*
D03*
X675000Y235750D02*
D03*
Y239250D02*
D03*
X670000Y235750D02*
D03*
Y239250D02*
D03*
X675000Y260750D02*
D03*
Y264250D02*
D03*
Y268250D02*
D03*
Y271750D02*
D03*
X680000Y279250D02*
D03*
Y275750D02*
D03*
X685000D02*
D03*
Y279250D02*
D03*
X665000Y239250D02*
D03*
Y235750D02*
D03*
X670000Y275750D02*
D03*
Y279250D02*
D03*
X690000Y275750D02*
D03*
Y279250D02*
D03*
X660000Y239250D02*
D03*
Y235750D02*
D03*
X655000D02*
D03*
Y239250D02*
D03*
X665000Y275750D02*
D03*
Y279250D02*
D03*
X660000D02*
D03*
Y275750D02*
D03*
X695000D02*
D03*
Y279250D02*
D03*
X700000D02*
D03*
Y275750D02*
D03*
X750000Y254250D02*
D03*
Y250750D02*
D03*
Y243250D02*
D03*
Y246750D02*
D03*
X685000Y239250D02*
D03*
Y235750D02*
D03*
X705000Y255750D02*
D03*
Y259250D02*
D03*
Y245750D02*
D03*
Y249250D02*
D03*
X655000Y275750D02*
D03*
Y279250D02*
D03*
X732500Y218250D02*
D03*
Y221750D02*
D03*
X690000Y235750D02*
D03*
Y239250D02*
D03*
X737500Y218250D02*
D03*
Y221750D02*
D03*
X680000Y268250D02*
D03*
Y271750D02*
D03*
X675000Y249250D02*
D03*
Y245750D02*
D03*
X720000Y279250D02*
D03*
Y275750D02*
D03*
X715000Y279250D02*
D03*
Y275750D02*
D03*
X710000Y279250D02*
D03*
Y275750D02*
D03*
X725000D02*
D03*
Y279250D02*
D03*
X557500Y185750D02*
D03*
Y189250D02*
D03*
Y196750D02*
D03*
Y193250D02*
D03*
X577500D02*
D03*
Y196750D02*
D03*
Y211750D02*
D03*
Y208250D02*
D03*
X572500Y218250D02*
D03*
Y221750D02*
D03*
X570000Y186750D02*
D03*
Y183250D02*
D03*
X727500Y193250D02*
D03*
Y196750D02*
D03*
X747500Y193250D02*
D03*
Y196750D02*
D03*
Y211750D02*
D03*
Y208250D02*
D03*
X742500Y218250D02*
D03*
Y221750D02*
D03*
X740000Y186750D02*
D03*
Y183250D02*
D03*
X442500Y186750D02*
D03*
Y183250D02*
D03*
X430000Y193250D02*
D03*
Y196750D02*
D03*
X450000Y193250D02*
D03*
Y196750D02*
D03*
Y211750D02*
D03*
Y208250D02*
D03*
D61*
X341750Y240000D02*
D03*
X338250D02*
D03*
X316750D02*
D03*
X313250D02*
D03*
X291750D02*
D03*
X288250D02*
D03*
X404250Y275000D02*
D03*
X400750D02*
D03*
X393750D02*
D03*
X390250D02*
D03*
X92006Y279587D02*
D03*
X88506D02*
D03*
X349250Y225000D02*
D03*
X345750D02*
D03*
X336750Y215000D02*
D03*
X333250D02*
D03*
X336750Y220000D02*
D03*
X333250D02*
D03*
X323250D02*
D03*
X326750D02*
D03*
X21006Y374587D02*
D03*
X24506D02*
D03*
X318250Y275000D02*
D03*
X321750D02*
D03*
X299250Y240000D02*
D03*
X295750D02*
D03*
X324250D02*
D03*
X320750D02*
D03*
X293250Y275000D02*
D03*
X296750D02*
D03*
X343250D02*
D03*
X346750D02*
D03*
X349250Y240000D02*
D03*
X345750D02*
D03*
X429250D02*
D03*
X425750D02*
D03*
X365750Y275000D02*
D03*
X369250D02*
D03*
X365750Y240000D02*
D03*
X369250D02*
D03*
X393250Y117500D02*
D03*
X396750D02*
D03*
X393250Y147500D02*
D03*
X396750D02*
D03*
X393250Y87500D02*
D03*
X396750D02*
D03*
X415750Y215000D02*
D03*
X419250D02*
D03*
X413250Y190000D02*
D03*
X416750D02*
D03*
X68250Y317087D02*
D03*
X71750D02*
D03*
X68250Y312087D02*
D03*
X71750D02*
D03*
X145250Y279587D02*
D03*
X141750D02*
D03*
X143750Y379500D02*
D03*
X140250D02*
D03*
X11750Y132500D02*
D03*
X8250D02*
D03*
X11750Y140000D02*
D03*
X8250D02*
D03*
X174250Y265000D02*
D03*
X170750D02*
D03*
X166750Y385000D02*
D03*
X163250D02*
D03*
X44250Y140000D02*
D03*
X40750D02*
D03*
X44250Y132500D02*
D03*
X40750D02*
D03*
X44250Y125000D02*
D03*
X40750D02*
D03*
X553250Y240000D02*
D03*
X556750D02*
D03*
X555750Y275000D02*
D03*
X559250D02*
D03*
X603250D02*
D03*
X606750D02*
D03*
X598250Y240000D02*
D03*
X601750D02*
D03*
X608250D02*
D03*
X611750D02*
D03*
X723250D02*
D03*
X726750D02*
D03*
D62*
X12756Y160000D02*
D03*
X7244D02*
D03*
D63*
X390000Y291870D02*
D03*
X395000D02*
D03*
X400000D02*
D03*
X405000D02*
D03*
Y313130D02*
D03*
X400000D02*
D03*
X395000D02*
D03*
X390000D02*
D03*
X405000Y246870D02*
D03*
X400000D02*
D03*
X395000D02*
D03*
X390000D02*
D03*
Y268130D02*
D03*
X395000D02*
D03*
X400000D02*
D03*
X405000D02*
D03*
X530000Y246870D02*
D03*
X525000D02*
D03*
X520000D02*
D03*
X515000D02*
D03*
Y268130D02*
D03*
X520000D02*
D03*
X525000D02*
D03*
X530000D02*
D03*
X485000D02*
D03*
X490000D02*
D03*
X495000D02*
D03*
X500000D02*
D03*
Y246870D02*
D03*
X495000D02*
D03*
X490000D02*
D03*
X485000D02*
D03*
X477500D02*
D03*
X472500D02*
D03*
X467500D02*
D03*
X462500D02*
D03*
Y268130D02*
D03*
X467500D02*
D03*
X472500D02*
D03*
X477500D02*
D03*
X597500D02*
D03*
X602500D02*
D03*
X607500D02*
D03*
X612500D02*
D03*
Y246870D02*
D03*
X607500D02*
D03*
X602500D02*
D03*
X597500D02*
D03*
X700000D02*
D03*
X695000D02*
D03*
X690000D02*
D03*
X685000D02*
D03*
Y268130D02*
D03*
X690000D02*
D03*
X695000D02*
D03*
X700000D02*
D03*
X655000D02*
D03*
X660000D02*
D03*
X665000D02*
D03*
X670000D02*
D03*
Y246870D02*
D03*
X665000D02*
D03*
X660000D02*
D03*
X655000D02*
D03*
D64*
X367500Y310000D02*
D03*
X457000Y238000D02*
D03*
X375000Y310000D02*
D03*
X550500Y195000D02*
D03*
X630000Y277500D02*
D03*
X645000D02*
D03*
X305000Y237500D02*
D03*
X330000D02*
D03*
X430000Y215000D02*
D03*
X355000Y237500D02*
D03*
X375000Y152500D02*
D03*
X370000Y147500D02*
D03*
X365000Y142500D02*
D03*
X727500Y185000D02*
D03*
X430000D02*
D03*
X435500Y184000D02*
D03*
X737000Y174500D02*
D03*
X442500Y172500D02*
D03*
X567500D02*
D03*
X434500Y177500D02*
D03*
Y170500D02*
D03*
X557500Y215000D02*
D03*
X525000Y237500D02*
D03*
X585000Y270000D02*
D03*
X590000Y242500D02*
D03*
X698000Y237000D02*
D03*
X727500Y215000D02*
D03*
D65*
X375000Y285000D02*
D03*
X497500Y227500D02*
D03*
X375000Y297500D02*
D03*
X602500Y227500D02*
D03*
X496500Y291000D02*
D03*
X10000Y229500D02*
D03*
Y200457D02*
D03*
X515000Y227500D02*
D03*
X480000D02*
D03*
X532500D02*
D03*
X660000D02*
D03*
X677500D02*
D03*
X695000D02*
D03*
D66*
X582500Y285000D02*
D03*
X412500Y232500D02*
D03*
X382500D02*
D03*
X442500Y272500D02*
D03*
X100000Y279587D02*
D03*
X22500Y359587D02*
D03*
X112500Y279587D02*
D03*
X10000Y359587D02*
D03*
X172500Y280000D02*
D03*
X165000Y370000D02*
D03*
X185000Y280000D02*
D03*
X177500Y370000D02*
D03*
X402500Y215000D02*
D03*
X365000D02*
D03*
X390000D02*
D03*
X377500D02*
D03*
X570000Y272500D02*
D03*
X740000D02*
D03*
D67*
X10000Y218543D02*
D03*
Y211457D02*
D03*
X150000Y373043D02*
D03*
Y365957D02*
D03*
X156000Y298130D02*
D03*
Y291043D02*
D03*
X112500Y303130D02*
D03*
Y296043D02*
D03*
X122000Y365957D02*
D03*
Y373043D02*
D03*
D68*
X544402Y345000D02*
D03*
Y342244D02*
D03*
X565902Y345000D02*
D03*
Y342244D02*
D03*
X549902Y345000D02*
D03*
Y342244D02*
D03*
X560402Y345000D02*
D03*
Y342244D02*
D03*
X576902Y345000D02*
D03*
Y342244D02*
D03*
X609402Y345000D02*
D03*
Y342244D02*
D03*
X582402Y345000D02*
D03*
Y342244D02*
D03*
X614902Y345000D02*
D03*
Y342244D02*
D03*
X593402Y345000D02*
D03*
Y342244D02*
D03*
X626098Y345000D02*
D03*
Y342244D02*
D03*
X598902Y345000D02*
D03*
Y342244D02*
D03*
X631402Y345000D02*
D03*
Y342244D02*
D03*
X517402Y345000D02*
D03*
Y342244D02*
D03*
X527902Y345000D02*
D03*
Y342244D02*
D03*
X511902Y345000D02*
D03*
Y342244D02*
D03*
X533402Y345000D02*
D03*
Y342244D02*
D03*
X182902Y345000D02*
D03*
Y342244D02*
D03*
X166902Y345000D02*
D03*
Y342244D02*
D03*
X177402Y345000D02*
D03*
Y342244D02*
D03*
X280902Y345000D02*
D03*
Y342244D02*
D03*
X264402Y345000D02*
D03*
Y342244D02*
D03*
X275402Y345000D02*
D03*
Y342244D02*
D03*
X248402Y345000D02*
D03*
Y342244D02*
D03*
X259402Y345000D02*
D03*
Y342244D02*
D03*
X242902Y345000D02*
D03*
Y342244D02*
D03*
X231902Y345000D02*
D03*
Y342244D02*
D03*
X329902Y345000D02*
D03*
Y342244D02*
D03*
X340402Y345000D02*
D03*
Y342244D02*
D03*
X324402Y345000D02*
D03*
Y342244D02*
D03*
X345902Y345000D02*
D03*
Y342244D02*
D03*
X313500Y345000D02*
D03*
Y342244D02*
D03*
X307902Y345000D02*
D03*
Y342244D02*
D03*
X297402Y345000D02*
D03*
Y342244D02*
D03*
X291902Y345000D02*
D03*
Y342244D02*
D03*
X209902Y345000D02*
D03*
Y342244D02*
D03*
X199402Y345000D02*
D03*
Y342244D02*
D03*
X215902Y345000D02*
D03*
Y342244D02*
D03*
X226402Y345000D02*
D03*
Y342244D02*
D03*
X193902Y345000D02*
D03*
Y342244D02*
D03*
X161402Y345000D02*
D03*
Y342244D02*
D03*
D69*
X58244Y394000D02*
D03*
X61000D02*
D03*
X110000Y385000D02*
D03*
X112756D02*
D03*
X185000D02*
D03*
X187756D02*
D03*
X145000D02*
D03*
X147756D02*
D03*
D70*
X53957Y415000D02*
D03*
X61043D02*
D03*
X53957Y400000D02*
D03*
X61043D02*
D03*
X11457Y322087D02*
D03*
X18543D02*
D03*
X57957Y62000D02*
D03*
X65043D02*
D03*
X79457D02*
D03*
X86543D02*
D03*
X100957D02*
D03*
X108043D02*
D03*
X122457D02*
D03*
X129543D02*
D03*
X143957D02*
D03*
X151043D02*
D03*
X165457D02*
D03*
X172543D02*
D03*
X186957D02*
D03*
X194043D02*
D03*
X208457D02*
D03*
X215543D02*
D03*
X229957D02*
D03*
X237043D02*
D03*
X251457D02*
D03*
X258543D02*
D03*
X272957D02*
D03*
X280043D02*
D03*
X294457D02*
D03*
X301543D02*
D03*
X315957D02*
D03*
X323043D02*
D03*
X337457D02*
D03*
X344543D02*
D03*
X358957D02*
D03*
X366043D02*
D03*
X328543Y227500D02*
D03*
X321457D02*
D03*
X18543Y329587D02*
D03*
X11457D02*
D03*
X23957Y284587D02*
D03*
X31043D02*
D03*
X93957Y294587D02*
D03*
X101043D02*
D03*
X86043D02*
D03*
X78957D02*
D03*
X43543Y62000D02*
D03*
X36457D02*
D03*
D71*
X100000Y302894D02*
D03*
Y316280D02*
D03*
X80000D02*
D03*
Y302894D02*
D03*
X10000Y300394D02*
D03*
Y313779D02*
D03*
X20000Y300394D02*
D03*
Y313779D02*
D03*
X90000Y316280D02*
D03*
Y302894D02*
D03*
D72*
X450000Y222953D02*
D03*
Y217047D02*
D03*
X27500Y291634D02*
D03*
Y297539D02*
D03*
X60000Y298681D02*
D03*
Y304587D02*
D03*
X582500Y192047D02*
D03*
Y197953D02*
D03*
Y212953D02*
D03*
Y207047D02*
D03*
X577500Y217047D02*
D03*
Y222953D02*
D03*
X752500Y192047D02*
D03*
Y197953D02*
D03*
Y212953D02*
D03*
Y207047D02*
D03*
X747500Y217047D02*
D03*
Y222953D02*
D03*
X455000Y192047D02*
D03*
Y197953D02*
D03*
Y212953D02*
D03*
Y207047D02*
D03*
D73*
X72500Y339961D02*
D03*
Y324213D02*
D03*
D74*
X442500Y260118D02*
D03*
X446240Y249882D02*
D03*
X438760D02*
D03*
X65240Y81118D02*
D03*
X57760D02*
D03*
X61500Y70882D02*
D03*
X86740Y81118D02*
D03*
X79260D02*
D03*
X83000Y70882D02*
D03*
X108240Y81118D02*
D03*
X100760D02*
D03*
X104500Y70882D02*
D03*
X129740Y81118D02*
D03*
X122260D02*
D03*
X126000Y70882D02*
D03*
X151240Y81118D02*
D03*
X143760D02*
D03*
X147500Y70882D02*
D03*
X172740Y81118D02*
D03*
X165260D02*
D03*
X169000Y70882D02*
D03*
X194240Y81118D02*
D03*
X186760D02*
D03*
X190500Y70882D02*
D03*
X215740Y81118D02*
D03*
X208260D02*
D03*
X212000Y70882D02*
D03*
X237240Y81118D02*
D03*
X229760D02*
D03*
X233500Y70882D02*
D03*
X258740Y81118D02*
D03*
X251260D02*
D03*
X255000Y70882D02*
D03*
X280240Y81118D02*
D03*
X272760D02*
D03*
X276500Y70882D02*
D03*
X301740Y81118D02*
D03*
X294260D02*
D03*
X298000Y70882D02*
D03*
X323240Y81118D02*
D03*
X315760D02*
D03*
X319500Y70882D02*
D03*
X344740Y81118D02*
D03*
X337260D02*
D03*
X341000Y70882D02*
D03*
X366240Y81118D02*
D03*
X358760D02*
D03*
X362500Y70882D02*
D03*
X40000D02*
D03*
X36260Y81118D02*
D03*
X43740D02*
D03*
X570000Y260118D02*
D03*
X573740Y249882D02*
D03*
X566260D02*
D03*
X740000Y260118D02*
D03*
X743740Y249882D02*
D03*
X736260D02*
D03*
D75*
X5000Y94528D02*
D03*
Y85472D02*
D03*
D76*
X90000Y339173D02*
D03*
Y325000D02*
D03*
X45000Y290000D02*
D03*
Y304173D02*
D03*
D77*
X15000Y101732D02*
D03*
Y85000D02*
D03*
X28780Y101732D02*
D03*
D78*
X338244Y90000D02*
D03*
X343756D02*
D03*
X77500Y279587D02*
D03*
X83012D02*
D03*
X64256Y90000D02*
D03*
X58744D02*
D03*
X85756D02*
D03*
X80244D02*
D03*
X107256D02*
D03*
X101744D02*
D03*
X128756D02*
D03*
X123244D02*
D03*
X150256D02*
D03*
X144744D02*
D03*
X171756D02*
D03*
X166244D02*
D03*
X193256D02*
D03*
X187744D02*
D03*
X214756D02*
D03*
X209244D02*
D03*
X236256D02*
D03*
X230744D02*
D03*
X257756D02*
D03*
X252244D02*
D03*
X279256D02*
D03*
X273744D02*
D03*
X300756D02*
D03*
X295244D02*
D03*
X322256D02*
D03*
X316744D02*
D03*
X365256D02*
D03*
X359744D02*
D03*
X327756Y215000D02*
D03*
X322244D02*
D03*
X10000Y374587D02*
D03*
X15512D02*
D03*
X37244Y90000D02*
D03*
X42756D02*
D03*
X22756Y132500D02*
D03*
X17244D02*
D03*
X22756Y140000D02*
D03*
X17244D02*
D03*
X177756Y385000D02*
D03*
X172244D02*
D03*
X179744Y265000D02*
D03*
X185256D02*
D03*
X55256Y140000D02*
D03*
X49744D02*
D03*
X55256Y132500D02*
D03*
X49744D02*
D03*
X55256Y125000D02*
D03*
X49744D02*
D03*
D79*
X720489Y79741D02*
D03*
Y76000D02*
D03*
Y72260D02*
D03*
X731512D02*
D03*
Y76000D02*
D03*
Y79741D02*
D03*
X133382Y373240D02*
D03*
Y369500D02*
D03*
Y365760D02*
D03*
X143618D02*
D03*
Y373240D02*
D03*
X679512Y79741D02*
D03*
Y76000D02*
D03*
Y72260D02*
D03*
X668489D02*
D03*
Y76000D02*
D03*
Y79741D02*
D03*
X601512D02*
D03*
Y76000D02*
D03*
Y72260D02*
D03*
X590488D02*
D03*
Y76000D02*
D03*
Y79741D02*
D03*
X523512D02*
D03*
Y76000D02*
D03*
Y72260D02*
D03*
X512489D02*
D03*
Y76000D02*
D03*
Y79741D02*
D03*
X445512D02*
D03*
Y76000D02*
D03*
Y72260D02*
D03*
X434488D02*
D03*
Y76000D02*
D03*
Y79741D02*
D03*
X705512D02*
D03*
Y76000D02*
D03*
Y72260D02*
D03*
X694488D02*
D03*
Y76000D02*
D03*
Y79741D02*
D03*
X627512D02*
D03*
Y76000D02*
D03*
Y72260D02*
D03*
X616489D02*
D03*
Y76000D02*
D03*
Y79741D02*
D03*
X549512D02*
D03*
Y76000D02*
D03*
Y72260D02*
D03*
X538488D02*
D03*
Y76000D02*
D03*
Y79741D02*
D03*
X471512D02*
D03*
Y76000D02*
D03*
Y72260D02*
D03*
X460489D02*
D03*
Y76000D02*
D03*
Y79741D02*
D03*
X653512D02*
D03*
Y76000D02*
D03*
Y72260D02*
D03*
X642488D02*
D03*
Y76000D02*
D03*
Y79741D02*
D03*
X575512D02*
D03*
Y76000D02*
D03*
Y72260D02*
D03*
X564489D02*
D03*
Y76000D02*
D03*
Y79741D02*
D03*
X497512D02*
D03*
Y76000D02*
D03*
Y72260D02*
D03*
X486488D02*
D03*
Y76000D02*
D03*
Y79741D02*
D03*
D80*
X50079Y322106D02*
D03*
X52047D02*
D03*
X54016D02*
D03*
X55984D02*
D03*
X57953D02*
D03*
X59921D02*
D03*
Y337067D02*
D03*
X57953D02*
D03*
X55984D02*
D03*
X54016D02*
D03*
X52047D02*
D03*
X50079D02*
D03*
D81*
X62480Y324764D02*
D03*
Y326693D02*
D03*
Y328622D02*
D03*
Y330551D02*
D03*
Y332480D02*
D03*
Y334409D02*
D03*
X47520D02*
D03*
Y332480D02*
D03*
Y330551D02*
D03*
Y328622D02*
D03*
Y326693D02*
D03*
Y324764D02*
D03*
D82*
X55000Y329587D02*
D03*
D83*
X352559Y216220D02*
D03*
X345000Y212441D02*
D03*
Y220000D02*
D03*
D84*
X147122Y287087D02*
D03*
Y292087D02*
D03*
Y297087D02*
D03*
Y302087D02*
D03*
X124878Y287087D02*
D03*
Y292087D02*
D03*
Y297087D02*
D03*
Y302087D02*
D03*
D85*
X8126Y116740D02*
D03*
X16000Y120480D02*
D03*
Y113000D02*
D03*
D86*
X384429Y136437D02*
D03*
Y134468D02*
D03*
Y132500D02*
D03*
Y130532D02*
D03*
Y128563D02*
D03*
X400571D02*
D03*
Y130532D02*
D03*
Y132500D02*
D03*
Y134468D02*
D03*
Y136437D02*
D03*
X293736Y167102D02*
D03*
Y165134D02*
D03*
Y163165D02*
D03*
Y161197D02*
D03*
Y159228D02*
D03*
X277594D02*
D03*
Y161197D02*
D03*
Y163165D02*
D03*
Y165134D02*
D03*
Y167102D02*
D03*
X400571Y76437D02*
D03*
Y74468D02*
D03*
Y72500D02*
D03*
Y70531D02*
D03*
Y68563D02*
D03*
X384429D02*
D03*
Y70531D02*
D03*
Y72500D02*
D03*
Y74468D02*
D03*
Y76437D02*
D03*
X400571Y106437D02*
D03*
Y104469D02*
D03*
Y102500D02*
D03*
Y100531D02*
D03*
Y98563D02*
D03*
X384429D02*
D03*
Y100531D02*
D03*
Y102500D02*
D03*
Y104469D02*
D03*
Y106437D02*
D03*
D87*
X388563Y124429D02*
D03*
X390531D02*
D03*
X392500D02*
D03*
X394468D02*
D03*
X396437D02*
D03*
Y140571D02*
D03*
X394468D02*
D03*
X392500D02*
D03*
X390531D02*
D03*
X388563D02*
D03*
X289602Y155095D02*
D03*
X287634D02*
D03*
X285665D02*
D03*
X283697D02*
D03*
X281728D02*
D03*
Y171236D02*
D03*
X283697D02*
D03*
X285665D02*
D03*
X287634D02*
D03*
X289602D02*
D03*
X388563Y80571D02*
D03*
X390531D02*
D03*
X392500D02*
D03*
X394468D02*
D03*
X396437D02*
D03*
Y64429D02*
D03*
X394468D02*
D03*
X392500D02*
D03*
X390531D02*
D03*
X388563D02*
D03*
X388563Y110571D02*
D03*
X390531D02*
D03*
X392500D02*
D03*
X394468D02*
D03*
X396437D02*
D03*
Y94429D02*
D03*
X394468D02*
D03*
X392500D02*
D03*
X390531D02*
D03*
X388563D02*
D03*
D88*
X392500Y132500D02*
D03*
Y72500D02*
D03*
X392500Y102500D02*
D03*
D89*
X338543Y268819D02*
D03*
X341102D02*
D03*
X343661D02*
D03*
X346220D02*
D03*
X348780D02*
D03*
X351339D02*
D03*
X353898D02*
D03*
X356457D02*
D03*
Y246181D02*
D03*
X353898D02*
D03*
X351339D02*
D03*
X348780D02*
D03*
X346220D02*
D03*
X343661D02*
D03*
X341102D02*
D03*
X338543D02*
D03*
X313543D02*
D03*
X316102D02*
D03*
X318661D02*
D03*
X321220D02*
D03*
X323780D02*
D03*
X326339D02*
D03*
X328898D02*
D03*
X331457D02*
D03*
Y268819D02*
D03*
X328898D02*
D03*
X326339D02*
D03*
X323780D02*
D03*
X321220D02*
D03*
X318661D02*
D03*
X316102D02*
D03*
X313543D02*
D03*
X288543Y246181D02*
D03*
X291102D02*
D03*
X293661D02*
D03*
X296220D02*
D03*
X298780D02*
D03*
X301339D02*
D03*
X303898D02*
D03*
X306457D02*
D03*
Y268819D02*
D03*
X303898D02*
D03*
X301339D02*
D03*
X298780D02*
D03*
X296220D02*
D03*
X293661D02*
D03*
X291102D02*
D03*
X288543D02*
D03*
X431457D02*
D03*
X428898D02*
D03*
X426339D02*
D03*
X423779D02*
D03*
X421220D02*
D03*
X418661D02*
D03*
X416102D02*
D03*
X413543D02*
D03*
Y246181D02*
D03*
X416102D02*
D03*
X418661D02*
D03*
X421220D02*
D03*
X423779D02*
D03*
X426339D02*
D03*
X428898D02*
D03*
X431457D02*
D03*
X363543D02*
D03*
X366102D02*
D03*
X368661D02*
D03*
X371220D02*
D03*
X373780D02*
D03*
X376339D02*
D03*
X378898D02*
D03*
X381457D02*
D03*
Y268819D02*
D03*
X378898D02*
D03*
X376339D02*
D03*
X373780D02*
D03*
X371220D02*
D03*
X368661D02*
D03*
X366102D02*
D03*
X363543D02*
D03*
X558957Y246181D02*
D03*
X556398D02*
D03*
X553839D02*
D03*
X551279D02*
D03*
X548721D02*
D03*
X546161D02*
D03*
X543602D02*
D03*
X541043D02*
D03*
Y268819D02*
D03*
X543602D02*
D03*
X546161D02*
D03*
X548721D02*
D03*
X551279D02*
D03*
X553839D02*
D03*
X556398D02*
D03*
X558957D02*
D03*
X728957Y246181D02*
D03*
X726398D02*
D03*
X723839D02*
D03*
X721279D02*
D03*
X718720D02*
D03*
X716161D02*
D03*
X713602D02*
D03*
X711043D02*
D03*
Y268819D02*
D03*
X713602D02*
D03*
X716161D02*
D03*
X718720D02*
D03*
X721279D02*
D03*
X723839D02*
D03*
X726398D02*
D03*
X728957D02*
D03*
D90*
X443937Y211161D02*
D03*
X441968D02*
D03*
X440000D02*
D03*
X438031D02*
D03*
X436063D02*
D03*
X436063Y193839D02*
D03*
X438031D02*
D03*
X440000D02*
D03*
X441968D02*
D03*
X443937D02*
D03*
X571437D02*
D03*
X569468D02*
D03*
X567500D02*
D03*
X565531D02*
D03*
X563563D02*
D03*
X563563Y211161D02*
D03*
X565531D02*
D03*
X567500D02*
D03*
X569468D02*
D03*
X571437D02*
D03*
X741437Y193839D02*
D03*
X739468D02*
D03*
X737500D02*
D03*
X735532D02*
D03*
X733563D02*
D03*
X733563Y211161D02*
D03*
X735532D02*
D03*
X737500D02*
D03*
X739468D02*
D03*
X741437D02*
D03*
D91*
X285665Y163165D02*
D03*
D92*
X45374Y314587D02*
D03*
X29626D02*
D03*
D93*
X21693Y339587D02*
D03*
X8307D02*
D03*
D94*
X414547Y220000D02*
D03*
X420453D02*
D03*
X412047Y185000D02*
D03*
X417953D02*
D03*
D95*
X533819Y303957D02*
D03*
Y301398D02*
D03*
Y298839D02*
D03*
Y296280D02*
D03*
Y293721D02*
D03*
Y291161D02*
D03*
Y288602D02*
D03*
Y286043D02*
D03*
X511181D02*
D03*
Y288602D02*
D03*
Y291161D02*
D03*
Y293721D02*
D03*
Y296280D02*
D03*
Y298839D02*
D03*
Y301398D02*
D03*
Y303957D02*
D03*
X616319D02*
D03*
Y301398D02*
D03*
Y298839D02*
D03*
Y296280D02*
D03*
Y293721D02*
D03*
Y291161D02*
D03*
Y288602D02*
D03*
Y286043D02*
D03*
X593681D02*
D03*
Y288602D02*
D03*
Y291161D02*
D03*
Y293721D02*
D03*
Y296280D02*
D03*
Y298839D02*
D03*
Y301398D02*
D03*
Y303957D02*
D03*
D96*
X476890Y419842D02*
D03*
X213110Y32658D02*
D03*
X318110D02*
D03*
X283110D02*
D03*
X248110D02*
D03*
X528110D02*
D03*
X423110D02*
D03*
X388110D02*
D03*
X458110D02*
D03*
X493110D02*
D03*
X353110D02*
D03*
X231890Y419842D02*
D03*
X441890D02*
D03*
X511890D02*
D03*
X546890D02*
D03*
X266890D02*
D03*
X301890D02*
D03*
X371890D02*
D03*
X336890D02*
D03*
X406890D02*
D03*
X196890D02*
D03*
X126890D02*
D03*
X161890D02*
D03*
X91890D02*
D03*
X73110Y32658D02*
D03*
X108110D02*
D03*
X143110D02*
D03*
X178110D02*
D03*
X38110D02*
D03*
X563110D02*
D03*
X598110D02*
D03*
X668110D02*
D03*
X633110D02*
D03*
X738110D02*
D03*
X703110D02*
D03*
X773110D02*
D03*
X616890Y419842D02*
D03*
X651890D02*
D03*
X581890D02*
D03*
X686890D02*
D03*
X721890D02*
D03*
X756890D02*
D03*
D97*
X463110Y400157D02*
D03*
X226890Y52342D02*
D03*
X10000Y185000D02*
D03*
X20000D02*
D03*
X30000D02*
D03*
X40000D02*
D03*
X50000D02*
D03*
X60000D02*
D03*
X70000D02*
D03*
X80000D02*
D03*
X90000D02*
D03*
X100000D02*
D03*
X110000D02*
D03*
X120000D02*
D03*
X130000D02*
D03*
X140000D02*
D03*
X150000D02*
D03*
X160000D02*
D03*
X170000D02*
D03*
X180000D02*
D03*
X190000D02*
D03*
X200000D02*
D03*
X210000D02*
D03*
X220000D02*
D03*
X230000D02*
D03*
X240000D02*
D03*
Y245000D02*
D03*
X230000D02*
D03*
X220000D02*
D03*
X210000D02*
D03*
X200000D02*
D03*
X190000D02*
D03*
X180000D02*
D03*
X170000D02*
D03*
X160000D02*
D03*
X150000D02*
D03*
X140000D02*
D03*
X130000D02*
D03*
X120000D02*
D03*
X110000D02*
D03*
X100000D02*
D03*
X90000D02*
D03*
X80000D02*
D03*
X70000D02*
D03*
X60000D02*
D03*
X50000D02*
D03*
X40000D02*
D03*
X30000D02*
D03*
X20000D02*
D03*
X331890Y52342D02*
D03*
X296890D02*
D03*
X261890D02*
D03*
X541890D02*
D03*
X436890D02*
D03*
X401890D02*
D03*
X471890D02*
D03*
X506890D02*
D03*
X366890D02*
D03*
X218110Y400157D02*
D03*
X428110D02*
D03*
X498110D02*
D03*
X533110D02*
D03*
X253110D02*
D03*
X288110D02*
D03*
X358110D02*
D03*
X323110D02*
D03*
X393110D02*
D03*
X183110D02*
D03*
X113110D02*
D03*
X148110D02*
D03*
X78110D02*
D03*
X86890Y52342D02*
D03*
X121890D02*
D03*
X156890D02*
D03*
X191890D02*
D03*
X51890D02*
D03*
X576890D02*
D03*
X611890D02*
D03*
X681890D02*
D03*
X646890D02*
D03*
X751890D02*
D03*
X716890D02*
D03*
X786890D02*
D03*
X603110Y400157D02*
D03*
X638110D02*
D03*
X568110D02*
D03*
X673110D02*
D03*
X708110D02*
D03*
X743110D02*
D03*
X778942Y292890D02*
D03*
Y187890D02*
D03*
Y257890D02*
D03*
Y222890D02*
D03*
Y152890D02*
D03*
Y327890D02*
D03*
D98*
X15000Y435000D02*
D03*
X817500D02*
D03*
Y15000D02*
D03*
X15000D02*
D03*
D99*
X696693Y119409D02*
D03*
X446693D02*
D03*
X346413D02*
D03*
X161217D02*
D03*
X128894Y327091D02*
D03*
X378894D02*
D03*
X479016D02*
D03*
X664213D02*
D03*
D100*
X664055Y113819D02*
D03*
X653189D02*
D03*
X642323D02*
D03*
X631457D02*
D03*
X620590D02*
D03*
X609724D02*
D03*
X598858D02*
D03*
X587992D02*
D03*
X577126D02*
D03*
X566260D02*
D03*
X555394D02*
D03*
X544527D02*
D03*
X533661D02*
D03*
X522795D02*
D03*
X511929D02*
D03*
X501063D02*
D03*
X490197D02*
D03*
X479331D02*
D03*
X669488Y125000D02*
D03*
X658622D02*
D03*
X647756D02*
D03*
X636890D02*
D03*
X626024D02*
D03*
X615158D02*
D03*
X604291D02*
D03*
X593425D02*
D03*
X582559D02*
D03*
X571693D02*
D03*
X560827D02*
D03*
X549961D02*
D03*
X539094D02*
D03*
X528228D02*
D03*
X517362D02*
D03*
X506496D02*
D03*
X495630D02*
D03*
X484764D02*
D03*
X313579Y113819D02*
D03*
X302713D02*
D03*
X291846D02*
D03*
X280980D02*
D03*
X270114D02*
D03*
X259248D02*
D03*
X248382D02*
D03*
X237516D02*
D03*
X226650D02*
D03*
X215784D02*
D03*
X204917D02*
D03*
X194051D02*
D03*
X319012Y125000D02*
D03*
X308146D02*
D03*
X297280D02*
D03*
X286413D02*
D03*
X275547D02*
D03*
X264681D02*
D03*
X253815D02*
D03*
X242949D02*
D03*
X232083D02*
D03*
X221217D02*
D03*
X210350D02*
D03*
X199484D02*
D03*
X166965Y332681D02*
D03*
X177831D02*
D03*
X188697D02*
D03*
X199563D02*
D03*
X210429D02*
D03*
X221295D02*
D03*
X232161D02*
D03*
X243028D02*
D03*
X253894D02*
D03*
X264760D02*
D03*
X275626D02*
D03*
X286492D02*
D03*
X297358D02*
D03*
X308224D02*
D03*
X319091D02*
D03*
X329957D02*
D03*
X340823D02*
D03*
X351689D02*
D03*
X161531Y321500D02*
D03*
X172398D02*
D03*
X183264D02*
D03*
X194130D02*
D03*
X204996D02*
D03*
X215862D02*
D03*
X226728D02*
D03*
X237595D02*
D03*
X248461D02*
D03*
X259327D02*
D03*
X270193D02*
D03*
X281059D02*
D03*
X291925D02*
D03*
X302791D02*
D03*
X313657D02*
D03*
X324524D02*
D03*
X335390D02*
D03*
X346256D02*
D03*
X517283Y332681D02*
D03*
X528150D02*
D03*
X539016D02*
D03*
X549882D02*
D03*
X560748D02*
D03*
X571614D02*
D03*
X582480D02*
D03*
X593346D02*
D03*
X604213D02*
D03*
X615079D02*
D03*
X625945D02*
D03*
X636811D02*
D03*
X511850Y321500D02*
D03*
X522717D02*
D03*
X533583D02*
D03*
X544449D02*
D03*
X555315D02*
D03*
X566181D02*
D03*
X577047D02*
D03*
X587913D02*
D03*
X598779D02*
D03*
X609646D02*
D03*
X620512D02*
D03*
X631378D02*
D03*
D101*
X473898Y125000D02*
D03*
X188618D02*
D03*
X156098Y332681D02*
D03*
X506417D02*
D03*
D102*
X462500Y175000D02*
D03*
X587500D02*
D03*
X757500D02*
D03*
D103*
X452500D02*
D03*
X577500D02*
D03*
X747500D02*
D03*
D104*
X10000Y245000D02*
D03*
X798628Y279110D02*
D03*
Y174110D02*
D03*
Y244110D02*
D03*
Y209110D02*
D03*
Y139110D02*
D03*
Y314110D02*
D03*
D105*
X390335Y134665D02*
D03*
X394665D02*
D03*
X390335Y130335D02*
D03*
X394665D02*
D03*
X283500Y161000D02*
D03*
Y165331D02*
D03*
X287831Y161000D02*
D03*
Y165331D02*
D03*
X394665Y70335D02*
D03*
X390335D02*
D03*
X394665Y74665D02*
D03*
X390335D02*
D03*
X394665Y100335D02*
D03*
X390335D02*
D03*
X394665Y104665D02*
D03*
X390335D02*
D03*
M02*
