G04*
G04 #@! TF.GenerationSoftware,Altium Limited,Altium Designer,22.10.1 (41)*
G04*
G04 Layer_Color=16711935*
%FSLAX25Y25*%
%MOIN*%
G70*
G04*
G04 #@! TF.SameCoordinates,B22AEA06-AE45-4BA8-881C-222E2ACC086B*
G04*
G04*
G04 #@! TF.FilePolarity,Negative*
G04*
G01*
G75*
%ADD96R,0.07887X0.07887*%
%ADD97C,0.07887*%
%ADD98C,0.24422*%
%ADD99C,0.20485*%
%ADD100C,0.07099*%
G04:AMPARAMS|DCode=101|XSize=70.99mil|YSize=70.99mil|CornerRadius=19.75mil|HoleSize=0mil|Usage=FLASHONLY|Rotation=270.000|XOffset=0mil|YOffset=0mil|HoleType=Round|Shape=RoundedRectangle|*
%AMROUNDEDRECTD101*
21,1,0.07099,0.03150,0,0,270.0*
21,1,0.03150,0.07099,0,0,270.0*
1,1,0.03950,-0.01575,-0.01575*
1,1,0.03950,-0.01575,0.01575*
1,1,0.03950,0.01575,0.01575*
1,1,0.03950,0.01575,-0.01575*
%
%ADD101ROUNDEDRECTD101*%
%ADD102C,0.06706*%
%ADD103R,0.06706X0.06706*%
%ADD104R,0.07887X0.07887*%
D96*
X476890Y419842D02*
D03*
X213110Y32658D02*
D03*
X318110D02*
D03*
X283110D02*
D03*
X248110D02*
D03*
X528110D02*
D03*
X423110D02*
D03*
X388110D02*
D03*
X458110D02*
D03*
X493110D02*
D03*
X353110D02*
D03*
X231890Y419842D02*
D03*
X441890D02*
D03*
X511890D02*
D03*
X546890D02*
D03*
X266890D02*
D03*
X301890D02*
D03*
X371890D02*
D03*
X336890D02*
D03*
X406890D02*
D03*
X196890D02*
D03*
X126890D02*
D03*
X161890D02*
D03*
X91890D02*
D03*
X73110Y32658D02*
D03*
X108110D02*
D03*
X143110D02*
D03*
X178110D02*
D03*
X38110D02*
D03*
X563110D02*
D03*
X598110D02*
D03*
X668110D02*
D03*
X633110D02*
D03*
X738110D02*
D03*
X703110D02*
D03*
X773110D02*
D03*
X616890Y419842D02*
D03*
X651890D02*
D03*
X581890D02*
D03*
X686890D02*
D03*
X721890D02*
D03*
X756890D02*
D03*
D97*
X463110Y400157D02*
D03*
X226890Y52342D02*
D03*
X10000Y185000D02*
D03*
X20000D02*
D03*
X30000D02*
D03*
X40000D02*
D03*
X50000D02*
D03*
X60000D02*
D03*
X70000D02*
D03*
X80000D02*
D03*
X90000D02*
D03*
X100000D02*
D03*
X110000D02*
D03*
X120000D02*
D03*
X130000D02*
D03*
X140000D02*
D03*
X150000D02*
D03*
X160000D02*
D03*
X170000D02*
D03*
X180000D02*
D03*
X190000D02*
D03*
X200000D02*
D03*
X210000D02*
D03*
X220000D02*
D03*
X230000D02*
D03*
X240000D02*
D03*
Y245000D02*
D03*
X230000D02*
D03*
X220000D02*
D03*
X210000D02*
D03*
X200000D02*
D03*
X190000D02*
D03*
X180000D02*
D03*
X170000D02*
D03*
X160000D02*
D03*
X150000D02*
D03*
X140000D02*
D03*
X130000D02*
D03*
X120000D02*
D03*
X110000D02*
D03*
X100000D02*
D03*
X90000D02*
D03*
X80000D02*
D03*
X70000D02*
D03*
X60000D02*
D03*
X50000D02*
D03*
X40000D02*
D03*
X30000D02*
D03*
X20000D02*
D03*
X331890Y52342D02*
D03*
X296890D02*
D03*
X261890D02*
D03*
X541890D02*
D03*
X436890D02*
D03*
X401890D02*
D03*
X471890D02*
D03*
X506890D02*
D03*
X366890D02*
D03*
X218110Y400157D02*
D03*
X428110D02*
D03*
X498110D02*
D03*
X533110D02*
D03*
X253110D02*
D03*
X288110D02*
D03*
X358110D02*
D03*
X323110D02*
D03*
X393110D02*
D03*
X183110D02*
D03*
X113110D02*
D03*
X148110D02*
D03*
X78110D02*
D03*
X86890Y52342D02*
D03*
X121890D02*
D03*
X156890D02*
D03*
X191890D02*
D03*
X51890D02*
D03*
X576890D02*
D03*
X611890D02*
D03*
X681890D02*
D03*
X646890D02*
D03*
X751890D02*
D03*
X716890D02*
D03*
X786890D02*
D03*
X603110Y400157D02*
D03*
X638110D02*
D03*
X568110D02*
D03*
X673110D02*
D03*
X708110D02*
D03*
X743110D02*
D03*
X778942Y292890D02*
D03*
Y187890D02*
D03*
Y257890D02*
D03*
Y222890D02*
D03*
Y152890D02*
D03*
Y327890D02*
D03*
D98*
X15000Y435000D02*
D03*
X817500D02*
D03*
Y15000D02*
D03*
X15000D02*
D03*
D99*
X696693Y119409D02*
D03*
X446693D02*
D03*
X346413D02*
D03*
X161217D02*
D03*
X128894Y327091D02*
D03*
X378894D02*
D03*
X479016D02*
D03*
X664213D02*
D03*
D100*
X664055Y113819D02*
D03*
X653189D02*
D03*
X642323D02*
D03*
X631457D02*
D03*
X620590D02*
D03*
X609724D02*
D03*
X598858D02*
D03*
X587992D02*
D03*
X577126D02*
D03*
X566260D02*
D03*
X555394D02*
D03*
X544527D02*
D03*
X533661D02*
D03*
X522795D02*
D03*
X511929D02*
D03*
X501063D02*
D03*
X490197D02*
D03*
X479331D02*
D03*
X669488Y125000D02*
D03*
X658622D02*
D03*
X647756D02*
D03*
X636890D02*
D03*
X626024D02*
D03*
X615158D02*
D03*
X604291D02*
D03*
X593425D02*
D03*
X582559D02*
D03*
X571693D02*
D03*
X560827D02*
D03*
X549961D02*
D03*
X539094D02*
D03*
X528228D02*
D03*
X517362D02*
D03*
X506496D02*
D03*
X495630D02*
D03*
X484764D02*
D03*
X313579Y113819D02*
D03*
X302713D02*
D03*
X291846D02*
D03*
X280980D02*
D03*
X270114D02*
D03*
X259248D02*
D03*
X248382D02*
D03*
X237516D02*
D03*
X226650D02*
D03*
X215784D02*
D03*
X204917D02*
D03*
X194051D02*
D03*
X319012Y125000D02*
D03*
X308146D02*
D03*
X297280D02*
D03*
X286413D02*
D03*
X275547D02*
D03*
X264681D02*
D03*
X253815D02*
D03*
X242949D02*
D03*
X232083D02*
D03*
X221217D02*
D03*
X210350D02*
D03*
X199484D02*
D03*
X166965Y332681D02*
D03*
X177831D02*
D03*
X188697D02*
D03*
X199563D02*
D03*
X210429D02*
D03*
X221295D02*
D03*
X232161D02*
D03*
X243028D02*
D03*
X253894D02*
D03*
X264760D02*
D03*
X275626D02*
D03*
X286492D02*
D03*
X297358D02*
D03*
X308224D02*
D03*
X319091D02*
D03*
X329957D02*
D03*
X340823D02*
D03*
X351689D02*
D03*
X161531Y321500D02*
D03*
X172398D02*
D03*
X183264D02*
D03*
X194130D02*
D03*
X204996D02*
D03*
X215862D02*
D03*
X226728D02*
D03*
X237595D02*
D03*
X248461D02*
D03*
X259327D02*
D03*
X270193D02*
D03*
X281059D02*
D03*
X291925D02*
D03*
X302791D02*
D03*
X313657D02*
D03*
X324524D02*
D03*
X335390D02*
D03*
X346256D02*
D03*
X517283Y332681D02*
D03*
X528150D02*
D03*
X539016D02*
D03*
X549882D02*
D03*
X560748D02*
D03*
X571614D02*
D03*
X582480D02*
D03*
X593346D02*
D03*
X604213D02*
D03*
X615079D02*
D03*
X625945D02*
D03*
X636811D02*
D03*
X511850Y321500D02*
D03*
X522717D02*
D03*
X533583D02*
D03*
X544449D02*
D03*
X555315D02*
D03*
X566181D02*
D03*
X577047D02*
D03*
X587913D02*
D03*
X598779D02*
D03*
X609646D02*
D03*
X620512D02*
D03*
X631378D02*
D03*
D101*
X473898Y125000D02*
D03*
X188618D02*
D03*
X156098Y332681D02*
D03*
X506417D02*
D03*
D102*
X462500Y175000D02*
D03*
X587500D02*
D03*
X757500D02*
D03*
D103*
X452500D02*
D03*
X577500D02*
D03*
X747500D02*
D03*
D104*
X10000Y245000D02*
D03*
X798628Y279110D02*
D03*
Y174110D02*
D03*
Y244110D02*
D03*
Y209110D02*
D03*
Y139110D02*
D03*
Y314110D02*
D03*
M02*
