M48
;Layer_Color=9474304
;FILE_FORMAT=2:4
INCH,TZ
;TYPE=PLATED
T1F00S00C0.0079
T2F00S00C0.0118
T3F00S00C0.0354
T4F00S00C0.0413
T5F00S00C0.1260
T6F00S00C0.1260
%
T01
X39033Y7033
X39467
Y7467
X39033
X39033Y10033
X39467
Y10467
X39033
X39033Y13033
Y13467
X39467
Y13033
X28783Y16100
X28350
Y16533
X28783
T02
X37244Y1811
X41181
X45118
X49055
X52992
X56929
X60866
X64803
X68740
X72677
X76614
Y9685
X80551
X82520Y13622
X78583
X74646
X70709
X71600Y11250
X71300Y9450
Y8650
X70950Y7200
X69900Y7250
X70000Y7850
X69450Y8300
X68600Y9300
X68150
X68450Y7300
X73650Y7250
X72677Y9685
X71950Y18150
X73250Y18750
Y20000
X73750
X74250
X74750Y19950
X74500Y20500
X74000
X73500
X73000
X72500
X72000
X71500
X71000
X70500
X70000
X69500
X69000
X68500
X68750Y20000
X69250
X69750
X70250
X70750
X71250
X71750
X72250
X72750
X72400Y19650
X73000Y21050
X75650Y21200
X75700Y20900
X76000Y20500
X76500
X76750Y20000
X77250
X76250
X75700Y19650
Y19300
X74750Y18750
X74450Y18650
X76614Y17559
X80551
X68740
X68250Y20000
X82520Y5748
X66772
X65679Y6900
X62751Y6951
X60151Y6901
X59650Y5800
X58650Y6400
X57550Y6700
X54500Y6650
X54961Y5748
X54850Y8350
X56929Y9685
X56750Y18050
X56200Y18350
X56425Y18575
X57350Y18650
X58600Y18600
X58450Y18350
X59050Y18650
X58600Y19200
Y19750
X59250Y20000
X59750
X60250
X60750
X61250
X61750
X62250
X62750
X63250
X63750
X64250
X64750
X65250
X65750
X66250
X66750
X67250
X67750
X68000Y20500
X67500
X67000
X66500
X66000
X65500
X65000
X64500
X64000
X63500
X63000
X62500
X62000
X61500
X61000
X60500
X60000
X59500
X59000
X58650Y20900
Y21200
X57500Y20500
X57000
X56500
X56000
X55500
X55000
X54500
X54000
X53500
X53000
X52500
X52750Y20000
X53250
X53750
X54250
X54750
X55250
X55750
X56250
X56750
X57250
X57750
X56050Y20982
X55400Y19300
Y18950
X52992Y17559
X60866
X64803
X62835Y13622
X52250Y20000
X51750
X51250
X50750
X50250
X49750
X49250
X48750
X48250
X47750
X47250
X46750
X46250
X45900Y19800
X45898Y19202
X45800Y18550
X46200
X46650Y18750
X47050Y19200
X47000Y20500
X47500
X48000
X48500
X49000
X49500
X50000
X50500
X51000
X51500
X52000
X46500
X45850Y20700
X45000Y20500
X44500
X44000
X43500
X43000
X42500
X42750Y20000
X43250
X43750
X44250
X45000
X44600Y18650
X44250Y18100
X43150Y18000
X42750Y18200
X42150Y18500
X40850
X40750Y20000
X40250
X39750
X39250
X38750
X38250
X37750
X37250
X37050Y20450
X38000Y20500
X38500
X39000
X39500
X40000
X40500
X41000
X43450Y16600
X45550Y18350
X49055Y17559
X49100Y6800
X47600Y6100
X46500Y6750
X44000Y6800
X43150Y5748
X40650Y6300
X40000Y8750
X39050Y8950
X38450Y7950
X36950Y8100
X37900Y9950
X37950Y10450
X37900Y11250
Y11550
X37200
X37000Y11300
X38450Y10900
X39062Y12000
X39950Y11750
X38050Y12450
X37850Y12950
X38050Y13250
X38000Y13650
X38450Y13900
X37750Y14250
Y14550
X38150Y14900
X38050Y15450
X37800Y15650
X37250Y16100
X37000Y14400
Y14100
X39050Y14900
X40000Y14750
X40600Y9450
X51024Y5748
X52350Y6750
X35600Y6900
X35550Y8050
X34500Y7650
X33426Y8074
X33450Y8700
X32379Y7679
X31250Y8200
X30500
X29100
X28050Y7700
X26950Y8150
X26200Y8200
X24800
X23750Y7650
X22750
X21900Y8350
X21500Y14100
X26500Y14600
X27450Y15250
X27402Y13622
X29000Y13700
X29300Y13800
X29250Y13100
X29277Y14723
X29550Y14850
X29387Y15113
X30300Y15950
Y16300
X30650
Y16800
X30950
X29000Y17550
X28600
X27200Y17200
X25433Y17559
X24300Y20100
X24000Y20050
X23250Y20250
X23000Y20100
X22300Y20200
X22000Y20050
X21250Y20250
X22800Y21200
X30500Y20500
X31000
X31500
X32000
X32500
X33000
X33500
X34000
X34500
X35000
X35500
X36000
X36650Y20450
X36750Y20000
X36250
X35750
X35250
X34750
X34250
X33750
X33250
X32750
X32250
X31750
X31250
X30750
X30250
X33900Y21050
X35450Y16500
X35650Y16250
X35850Y15500
X35550Y15300
X35650Y15000
X36050Y14200
X36500Y13900
X36750Y13100
X36500Y16050
X36250Y15800
X36350Y16650
X36750Y9550
X33000Y12000
X32100Y11250
X20500Y14100
X18200Y13700
X16850Y13850
X15850Y13900
X14900Y13800
X14450Y14100
X14000Y14400
X13622Y17559
X13000Y20100
X13200Y20350
X13450Y20800
Y21100
X12250Y20400
X12000Y20200
X11250Y20400
X11000Y20200
X10250Y20400
X10000Y20200
X9685Y17559
X8250Y17600
X8700Y15850
X8000Y15350
X7900Y15000
X8200Y14750
X7717Y13622
X8650Y12900
X8950Y12800
X8400Y12650
X6450Y9900
X6200Y10100
X5748Y9685
X6800Y8600
X7600Y8150
X9000Y8300
X9700
X11150
X11850Y8350
X13300Y8300
X14000Y8350
X15450Y8300
X16150Y8350
X17650Y8300
X18300Y8350
X19650Y8550
X20500Y7800
X19150Y16550
X18050Y16600
X17000Y16550
X17150Y20050
X18000Y20000
X19000
X19250Y20200
X20000Y20050
X20250Y20250
X21000Y20050
X16300Y19900
X16000Y20100
X6700Y20600
X6400Y19650
X5748Y17559
X11654Y5748
X5450Y8250
X4600Y9550
X4300
X3150Y8300
X3450Y12250
X2200
X2400Y11950
X2300Y12900
X3780Y13622
X5500Y12050
X800Y12000
X500Y10850
X1200Y14850
X1100Y15150
X1811Y17559
X600Y17900
X300Y17800
X1500Y19000
X2500Y19350
Y19700
X3200
X3000Y19400
X4000Y19950
X4250Y20150
X5000Y19950
X5250Y20150
X4600Y22800
Y23100
X3600
Y22800
X1000Y22300
X750Y28309
X1012Y28647
X1337Y28972
X1800Y29159
X1832Y29509
X2350Y29609
X2268Y29109
X2159Y28500
X1909Y28250
X2350Y28009
X3500Y27809
X3700Y28409
X4000Y28209
X5000Y28409
X4950Y29709
X4550
X4100
X3700
X3250Y30009
X2750Y30059
X3800Y31259
Y31609
Y31959
X4176Y32276
X3780Y33220
X3490Y33430
X3090Y33370
X2700Y33509
X2809Y33800
X3300Y33709
X3309Y34300
X3300Y34909
X3162Y35147
X2762Y34747
X2700Y34309
X2740Y33080
X3390Y33040
X3900Y33609
X4200Y35009
X4600
X5000Y35509
X4150Y35759
X5550Y34959
X5500Y33299
Y32959
X5160
X5500Y32619
X5446Y31754
X5200Y31759
X5600Y30759
X2400Y32350
X700Y32209
X600Y34909
X400Y35809
Y36409
X1000Y36859
Y29559
X700Y29259
X4100Y25700
X5350Y26150
X6550Y25850
X6500Y28709
X7000
X7500
X8000
X7800Y28952
X7500Y29509
X6900Y29209
X6350Y29309
X5900
X6000Y28709
X5650Y30459
X5800Y31709
X6300Y32009
X5840Y32959
X5700Y35609
X6400Y35509
X6800Y35109
X7200Y34709
X7600Y35109
X8000Y34709
Y35509
X7200
X8400Y35109
X9200
X8900Y35509
X9600
X10200
X10800
X11300
X11100Y35109
X11600
X11400Y34709
X11500Y34350
X11000Y34309
Y33809
Y33309
Y32809
X11400Y32709
X11200Y32309
X10300Y32509
Y32009
X9583
X8867
X8150
X7450Y31659
Y31209
X8417
X9233
X10050
X10700Y31609
Y30309
X11900Y30459
X12300Y30609
X14500Y32600
Y33300
Y34050
X15000Y35100
X15800Y34500
X17000
X17450
X18600
X19100
X20250
X20650
X15448Y36598
X12800Y36600
X11700Y36700
X10800Y34809
X10500Y35109
X9900
X10000Y34709
X9600
X8900
X10400Y34309
Y33809
Y33309
X9050Y29209
X9685Y25433
X12050Y26450
X12900Y26550
X14200Y28309
X16150Y29259
Y29609
X17750Y29000
X19050Y27950
X18900Y26500
X19050Y25600
X19350Y25700
X19150Y25100
X19250Y23600
X19750
X20250
X18750
X18250
X17375Y22120
X17350Y21835
X15500Y22800
X15600Y23100
X15250Y23078
X14650Y22750
X14800Y22500
X13550Y22650
X13700Y22950
X13400Y22350
X13450Y21750
Y21450
X8300Y22100
X8200Y22400
X16700Y27150
X17050Y27100
X21000Y26450
X20800Y25800
X21250Y25400
Y26250
X22150Y25500
X21300Y23600
X23750Y22600
X24000Y22850
X24909Y22791
X24950Y23150
X25250Y22950
X25050Y24050
X25300Y24250
X26750Y24950
X26550Y25250
X27150Y25050
X28100Y24000
X28850Y23650
X29450Y23700
X29950Y23650
X30950Y24000
Y24400
Y24700
X31350Y23700
X31950Y23650
X32450Y23700
X33400Y23950
X33500Y24450
Y24750
X33307Y25433
X34150Y26150
X34425Y26325
X34600Y26050
X36250Y26150
X36050Y26400
X36100Y25650
Y25350
X36590Y23710
X35000Y23700
X34450
X33850Y23650
X33200Y22750
X31850
X32050Y22000
X31950Y21450
X31850Y26100
X31588Y26238
X32100Y26300
X32150Y27850
X31850
X29650Y27800
X29350
X28450Y27400
X28400Y27000
X28050Y27200
X26750Y22550
X26850Y22250
X23850Y21300
X23250
X23550Y34500
X23950
X24850Y34850
X25600Y34500
X27250
X28450
X28850
X30050
X30450
X31800
X33350
X33700
X35276Y29370
X34650Y27800
X34350
X36300Y28050
X36600Y27800
X22300Y34500
X21900
X37950Y34850
X39350Y33150
X39100Y32400
X38900Y31950
X38100Y31500
X37950Y31250
X38650Y28450
X39500Y27795
X39700Y27500
X40500Y27796
Y28700
X41250Y28900
X41550Y29100
X41650Y29600
X42350Y29400
Y28800
X41550Y28500
X43300Y27900
Y27600
X43650Y27900
X43600Y26500
X43350Y26250
X43050
X41600Y25200
X40500Y24200
Y23100
X41700Y22400
X42090Y22390
X42900Y23150
X42950Y23700
X42600
X44000Y22450
X44500
X45350Y22300
X45400Y21850
X45850Y21300
X46750Y23300
X47750
Y24200
X47250Y25300
X47000Y25450
X45250Y25750
X46250Y27300
Y28250
X48500
Y27300
X50000Y28250
X51050
X52000Y28200
X51400Y26247
X51000
X50850Y24900
Y24600
Y23550
X51150Y23400
X52000Y23350
Y25250
X49500Y23272
X49915Y30135
X50560Y30140
X47650Y29250
X43150Y29370
X42300Y31550
X41650Y31300
X41600Y31900
X41200Y32450
X41181Y33307
X41650Y32950
X42150Y32350
X40650Y32800
X40000Y32700
X40150Y33400
X45118Y33307
X50800Y34500
X52050
X52450
X39750Y26000
X39550Y25750
X37900Y25250
X37244Y25433
X36900Y23700
X36950Y27800
X38500Y26850
X53000Y25650
X53337Y23925
X53300Y23600
X54084Y24134
X54150Y22750
X55300Y23700
X55892Y23890
X55950Y25250
Y25650
X55650
Y26350
X56000
X56250Y26600
Y26900
X55900Y27800
X55600
X54700Y26300
X54550Y29600
Y29900
X54250Y30250
X53950Y30400
X56300Y29850
X58150
Y30200
X58850
X58650Y31200
X57600Y30550
X59950Y30300
X60000Y29850
X60450Y29650
X60650Y29400
X60850Y30200
X60400Y31000
Y31350
X61900Y31300
X61850Y30950
X62800Y30200
Y29850
X63750Y29550
X64000Y31400
Y31700
X64803Y33307
X63600Y34200
X62350Y34500
X61500Y34750
X60950
X59900
X58790Y34500
X58050Y34850
X56900Y34500
X55750
X55350
X54150
X53650
X58950Y26900
Y26550
X58000Y25750
X58450Y23900
X57500
Y23200
X58150Y22200
Y21900
X59100Y23450
X60850Y23650
X61200
X61750Y24550
X62550Y24850
X62575Y25175
X62700Y23900
Y23550
X64800Y23600
X64788Y23937
X66200Y23300
X66772Y21496
X62835
X60750Y25200
X60450
X60400Y26050
X60750
X61850Y27000
X61450Y27752
Y28150
X61100Y27950
X62550Y28300
X63000Y27350
X65200Y27600
Y27900
X66772Y29370
X68000Y26450
X67800Y24950
Y24600
X68740Y25433
X68266Y26344
X69000Y28200
X70709Y29370
X72800Y27950
Y27600
X72650Y26350
X73000
X73300Y26650
X72900Y25700
X72600
X73150Y24600
X73650Y24450
X72700Y23650
X72350
X72400Y23000
X72100Y22900
X72950Y22500
X72750Y22250
X75200
Y21800
X78583Y21496
X82520
X80551Y25433
X82520Y29370
X78583
X80551Y33307
X72677
X68740
X68400Y31800
X70500Y25250
Y24300
X70709Y21496
X75000Y25800
X74646Y37244
X78583
X82520
X80551Y41181
X76614
X72677
X64803
X60866
X56929
X52992
X54961Y37244
X58898
X51024
X49055Y41181
X45118
X41181
X37244
X39213Y37244
X35276
X33307Y41181
X29370
X25433
X21496
X19100Y39800
X18200Y38500
X17800Y38900
X17050Y39550
X14200Y38500
X14000Y37650
X11276Y38026
X10750Y38500
X9685Y41181
X13622
X6500Y42050
X6900Y42850
X5400Y42050
X4800Y41550
X4700Y40550
X5400
Y40950
Y39450
X3780Y37244
X1500Y36909
X400
X600Y37409
X1000Y37909
X1811Y41181
T03
X74750Y17500
X75750
X58750
X57750
X46250
X45250
T04
X3811Y3266
X5189Y5234
X8689
X7311Y3266
X10811
X12189Y5234
X15689
X14311Y3266
X17811
X19189Y5234
X22689
X21311Y3266
X24811
X26189Y5234
X29689
X28311Y3266
X31811
X33189Y5234
X36689
X35311Y3266
X38811
X40189Y5234
X43689
X42311Y3266
X45811
X47189Y5234
X50689
X49311Y3266
X52811
X54189Y5234
X57689
X56311Y3266
X59811
X61189Y5234
X64689
X63311Y3266
X66811
X68189Y5234
X71689
X70311Y3266
X73811
X75189Y5234
X78689
X77311Y3266
X77894Y15289
X79863Y13911
Y17411
X77894Y18789
X79863Y20911
X66949Y12500
X65862
X64776
X63689
X62602
X61516
X60429
X59343
X58256
X57169
X56083
X54996
X53909
X52823
X53366Y11382
X54453
X55539
X56626
X57713
X58799
X59886
X60972
X62059
X63146
X64232
X65319
X66406
X52280
X51193
X50106
X49020
X47933
X48476Y12500
X49563
X50650
X51736
X47390
X31901
X30815
X29728
X28641
X27555
X26468
X25382
X24295
X23208
X22122
X22665Y11382
X23752
X24838
X25925
X27011
X28098
X29185
X30271
X31358
X21578
X22000Y18500
X23000
X24000
X21000
X20000
X19000
X18000
X17000
X16000
X15000
X14000
X13000
X12000
X11000
X10000
X9000
X8000
X7000
X6000
X18862Y12500
X19948
X21035
X20492Y11382
X19405
X5000Y18500
X4000
X3000
X2000
X1000
Y24500
X2000
X3000
X4000
X5000
X6000
X7000
X8000
X9000
X10000
X11000
X12000
X13000
X14000
X15000
X16000
X17000
X18000
X19000
X20000
X21000
X20500Y32150
X19413
X18326
X17240
X16153
X15610Y33268
X16696
X17783
X18870
X19956
X21043
X22130
X23216
X24303
X25389
X26476
X27563
X28649
X29736
X30822
X31909
X32996
X34082
X35169
X34626Y32150
X33539
X32452
X31366
X30279
X29193
X28106
X27019
X25933
X24846
X23759
X22673
X21586
X22000Y24500
X23000
X24000
X51185Y32150
X52272
X51728Y33268
X50642
X52815
X53902
X54988
X56075
X57161
X58248
X59335
X60421
X61508
X62594
X63681
X63138Y32150
X62051
X60965
X59878
X58791
X57705
X56618
X55532
X54445
X53358
X77894Y32789
X79863Y31411
Y27911
X77894Y29289
Y25789
X79863Y24411
X77894Y22289
X74311Y40016
X75689Y41984
X72189
X70811Y40016
X68689Y41984
X67311Y40016
X63811
X65189Y41984
X61689
X60311Y40016
X56811
X58189Y41984
X54689
X53311Y40016
X49811
X51189Y41984
X47689
X46311Y40016
X42811
X44189Y41984
X40689
X39311Y40016
X37189Y41984
X35811Y40016
X32311
X33689Y41984
X30189
X28811Y40016
X25311
X26689Y41984
X23189
X21811Y40016
X18311
X19689Y41984
X16189
X14811Y40016
X11311
X12689Y41984
X9189
X7811Y40016
T05
X1500Y1500
X81750
Y43500
X1500
T06
X69669Y11941
X44669
X34641
X16122
X12889Y32709
X37889
X47902
X66421
M30
