M48
;Layer_Color=9474304
;FILE_FORMAT=2:4
INCH,TZ
;TYPE=PLATED
T1F00S00C0.0079
T2F00S00C0.0118
T3F00S00C0.0130
T4F00S00C0.0354
T5F00S00C0.0413
T6F00S00C0.1260
%
T01
X40833Y17133
Y17567
X41267
Y17133
X27744Y17567
Y18000
X27311
Y17567
T02
X15565Y33402
X15905
Y33742
Y33062
X16245Y33402
T03
X11950Y15300
X13750Y15000
X15000Y12500
X17500
X22500
X25000
X23750Y15000
X28750
X30000Y12500
X32500
X40000
X42500
X41250Y15000
X38750
X46250
X50000Y12500
X56250Y15000
X58750
X57500Y17500
X55000
X56250Y20000
X58750
Y25000
X57500Y27500
X58750Y30000
X54250Y30350
X54500Y30900
X53150
X52500Y29950
X51700Y29875
X51250Y29900
X52100Y29250
X52510Y28550
X52530Y27490
X53150Y25950
X54300Y25700
X53750Y25000
X55000Y22500
X53750Y20000
X52050Y21400
X50700Y22000
X50400Y19900
X48750Y20000
X48200Y20350
X47450Y21050
X47900Y21850
X48150Y22900
X48650Y24150
X49100Y25350
X49470
X50350Y25950
X50650Y25710
X50150Y23900
X48390Y25770
X48100Y26050
X48700Y26900
X46995Y26905
X46976Y27524
X47150Y28050
X47000Y25250
X47700Y30650
X49000Y30550
X54070Y28690
X49420Y18330
X50120Y17330
X50385Y16610
X48640Y16340
X47574Y18256
X45980Y18250
X45030Y19380
X44900Y21850
X44950Y22750
Y23150
Y24115
X45000Y24900
X44550Y25035
X43700Y25850
X43150Y25900
X43030Y26740
X42540Y26810
X42550Y27670
X43120
X42020Y27440
X41540Y27020
X41500Y28000
X40750Y27850
X40300Y27800
X39550Y25850
X38900Y25800
X37702Y24848
X37560Y22260
X37500Y20990
X37920Y21230
X37900Y20250
X38270Y20220
X38874Y19648
X38963Y19289
X38960Y18860
Y18490
X38750Y17350
X39100Y17000
X40050Y18020
X40850Y19370
X41350Y19350
X40100Y20735
X39650Y20950
X38900Y21100
X39100Y21450
X40450Y21835
X40806Y22660
X40647Y23354
X40700Y24065
Y24550
X41250Y25000
X41709Y24891
X41750Y25850
X40987Y25683
X41600Y22550
X41650Y22140
X45950Y21100
X46200Y24300
X45790Y26490
X45360Y26830
X45900Y28750
X46605Y28775
X46150Y30550
X45316Y30684
X44927Y30734
X39766Y30052
X39400Y30000
X38331Y29831
X38300Y30300
X37600Y31100
X37700Y28950
Y28580
X37150Y27550
X36700Y27600
X36300Y26400
X35850
X34700Y27650
X34250Y27700
X32500Y27500
X33750Y25000
X34010Y22890
X34650Y22700
X32150Y22760
X32840Y21640
X32710Y20260
X32906Y17850
X32300Y17350
X31300Y17850
X33950Y17350
X34496Y17850
X35500Y17350
X36086Y17850
X37150Y17350
X37500Y17500
X37676Y17850
X36250Y21285
X35800Y21090
X31250Y25000
X33600Y30500
X36250Y30000
X41300Y15750
X41690Y15920
X43470Y16350
X45226Y16216
X46826Y16284
X44282Y17468
X30700Y17350
X29705Y17850
X28420Y18945
X28510Y19500
X27110Y19400
X26774Y19245
X26320Y19135
X26472Y18798
X26400Y18350
X26250Y17800
X25600
X24150Y17700
X24500Y18250
X22950
X22600Y17650
X21000
X21300Y18250
X20100Y17900
X20050Y17300
X19638Y17112
X19300Y16850
Y17750
X17750Y17700
X18100Y18250
X16600
X16300Y17650
X19041Y19641
X19900Y19650
X19907Y19150
X21340Y22410
X21290Y22860
X22250
X22300Y22480
X23050Y21950
X23450Y21750
X23950Y21500
X24330Y21800
X25200Y22765
X26180Y21640
X28400
X27517Y22760
X29833
X30620Y21640
X28750Y25000
X26250
X27500Y27500
X25000
X24210Y27620
X24180Y28210
X23600Y27740
X22500Y27500
X20000
X20200Y25300
X19800Y25100
X21250Y25000
X16900Y25100
X16600Y25500
X16710Y23240
X16320
X15883
X17500Y27500
X17600Y28500
X18050Y28100
X16900
X16250Y30000
X15850Y29950
X16100Y30400
Y31100
X19600Y30700
X19650Y29900
X22302Y30848
X25265Y28150
X26300Y16900
X27300Y16600
X14750Y17650
X15000Y18250
X13450
X13150Y17650
X12200Y17900
X11850Y17300
X11450Y17700
X10600Y17900
X11400Y19850
X11900Y19650
X12500Y22500
X14240Y23240
X14660
X15067
X15480
X14120Y23620
X14050Y27750
X14450Y27900
X15150Y28000
X15000Y27500
X13750Y28050
X13400Y27850
X11930Y28930
X12100Y29310
X10400Y29400
X10450Y28700
X10650Y30500
Y31180
Y31860
Y32540
Y33220
Y33900
X12550
Y34700
X12250Y35050
X13350
X13450Y34500
X13550Y35700
X14700Y36150
X15400Y37550
X13750Y40000
X14499Y32699
X16000Y32150
X17360Y32420
X17100Y32700
X17150Y33250
X17900Y32450
X19750Y32250
Y32700
X20300
X20900
X21400
Y33175
Y33650
Y34125
Y34600
X21250Y35000
X21400Y35550
X22000
X22350Y35950
X21700Y36000
X21100
X20750Y35650
X20350Y36050
X19500
X19900Y35650
X19050
X18550Y35760
X18530Y36210
X17990Y35900
X17920Y36490
X17350Y36150
X16465Y35650
X16100Y34700
X16050Y36700
X16250Y40000
X20000Y37500
X19900Y33900
X19300
X20550
X20600Y32300
X21750Y32150
X22350Y32340
X22254Y32904
X21950Y33300
X19750Y31500
X26750Y31300
X26700Y32400
X26650Y32800
X27723Y32650
X27695Y32050
X28199Y33151
X28250Y33800
X27899Y33917
X27750Y34400
Y34850
X27400Y33500
X29092Y33870
X29535Y34050
X29550Y34550
X29922Y34552
X30160Y34040
X30550Y34050
Y33050
X30450Y32600
X30800Y36900
X27500Y36400
Y37500
X25000
X25700Y36400
X26250Y40000
X23750
X31250
X33750
X33030Y38180
X33600Y36750
X33185Y35832
X32750Y35000
X32400Y34650
X32580Y34180
X33110Y33730
X33456Y33944
X33950Y33800
X34370Y33770
X34700Y34560
X35700Y33800
X35640Y33430
X36550Y33700
X37550Y34100
X37500Y34600
X37530Y36085
X38750Y35000
X39300Y34900
X40450Y34850
X41250Y35000
X41900Y35840
X42400Y35830
X43750Y35000
X44880Y35590
X46330Y35650
X46350Y32200
X44900
X44950Y31450
X44350Y31800
X43550Y31850
X42450Y31800
X41947Y31844
X40000Y32500
X38700Y31800
X37678Y31462
X37119Y31781
X32800Y32800
X32405Y32595
X32000Y31550
X31550Y33710
X38750Y40000
X41250
X43750
X48750
X51250
X50000Y37500
X49700Y35400
X48750Y35000
X47750Y35400
X47619Y32719
X47600Y32300
X47150Y32000
X48750Y31700
X50350Y31500
X50100Y32500
X51650Y32450
X51750Y33550
Y34200
X51500Y35050
X50950Y34750
X50550
X52685
X53650Y35650
X54100
X54800Y35400
X54650Y34750
X54250Y34250
X54510Y33950
X55100Y33550
X54662Y32912
X54150Y32500
X53200Y32600
X52750Y32650
X53400Y33100
X54599Y31744
X54360Y31450
X52450Y31350
X53100Y36300
X56250Y40000
X58750
Y35000
T04
X40900Y20500
X41900
X43550
X44550
T05
X12989Y12500
X11611Y14468
X15149
X16527Y12500
X20066
X18688Y14468
X22226
X23604Y12500
X27143
X25765Y14468
X29303
X30681Y12500
X34220
X32842Y14468
X36380
X37758Y12500
X41297
X39919Y14468
X43457
X44835Y12500
X48374
X46996Y14468
X50534
X51912Y12500
X55451
X54073Y14468
X57611
X58989Y12500
X57984Y18478
X56016Y17100
Y20711
X57984Y22089
Y25789
X56016Y24411
Y28011
X57984Y29389
X33900Y26850
X32900
X31900
Y20850
X32900
X33900
X30900
X29900
X28900
X27900
X26900
X25900
X24900
X23900
X22900
X21900
X20900
X19900
X18900
X17900
X16900
X15900
Y26850
X16900
X17900
X18900
X19900
X20900
X21900
X22900
X23900
X24900
X25900
X26900
X27900
X28900
X29900
X30900
X14900
X13900
X12900
X11900
X10900
Y20850
X11900
X12900
X13900
X14900
X14601Y40484
X11059
X12437Y38516
X15979
X19522
X18144Y40484
X21686
X23064Y38516
X26607
X25229Y40484
X28771
X30149Y38516
X33692
X32314Y40484
X35856
X37234Y38516
X40777
X39399Y40484
X42941
X44319Y38516
X46484Y40484
X47862Y38516
X51404
X50026Y40484
X53569
X54947Y38516
X58489
X57984Y36489
X56016Y35111
Y31611
X57984Y32989
X57111Y40484
T06
X53550Y21150
X22400Y34450
M30
