G04*
G04 #@! TF.GenerationSoftware,Altium Limited,Altium Designer,22.10.1 (41)*
G04*
G04 Layer_Color=65280*
%FSLAX25Y25*%
%MOIN*%
G70*
G04*
G04 #@! TF.SameCoordinates,B9BD54E3-EECD-4B20-9C05-BBB2DA08042D*
G04*
G04*
G04 #@! TF.FilePolarity,Positive*
G04*
G01*
G75*
%ADD16C,0.00700*%
D16*
X109000Y430000D02*
X107992Y429943D01*
X106997Y429774D01*
X106027Y429495D01*
X105095Y429109D01*
X104212Y428620D01*
X103389Y428036D01*
X102636Y427364D01*
X101963Y426611D01*
X101380Y425788D01*
X100891Y424905D01*
X100505Y423973D01*
X100226Y423003D01*
X100057Y422008D01*
X100000Y421000D01*
Y109500D02*
X100052Y108507D01*
X100208Y107525D01*
X100465Y106564D01*
X100821Y105636D01*
X101273Y104750D01*
X101814Y103916D01*
X102440Y103143D01*
X103143Y102440D01*
X103916Y101814D01*
X104750Y101273D01*
X105636Y100821D01*
X106564Y100465D01*
X107525Y100208D01*
X108507Y100052D01*
X109500Y100000D01*
X600627Y100000D02*
X601607Y100051D01*
X602576Y100205D01*
X603523Y100459D01*
X604439Y100810D01*
X605313Y101256D01*
X606136Y101790D01*
X606899Y102408D01*
X607592Y103101D01*
X608210Y103864D01*
X608744Y104686D01*
X609190Y105561D01*
X609541Y106477D01*
X609795Y107424D01*
X609949Y108393D01*
X610000Y109373D01*
Y420627D02*
X609949Y421607D01*
X609795Y422576D01*
X609541Y423523D01*
X609190Y424439D01*
X608744Y425314D01*
X608210Y426136D01*
X607592Y426899D01*
X606899Y427593D01*
X606136Y428210D01*
X605313Y428744D01*
X604439Y429190D01*
X603523Y429541D01*
X602576Y429795D01*
X601607Y429949D01*
X600627Y430000D01*
X109000D02*
X600627D01*
X100000Y109500D02*
Y421000D01*
X109500Y100000D02*
X600627D01*
X610000Y109373D02*
Y420627D01*
M02*
